<svg xmlns="http://www.w3.org/2000/svg" xmlns:xlink="http://www.w3.org/1999/xlink" version="1.1" x="0px" y="0px" viewBox="0 0 512 640" style="enable-background:new 0 0 512 512;" xml:space="preserve"><g><g><path d="M470.685,466.12C483.785,450.771,491,431.209,491,411c0-43.484-32.829-79.424-75-84.392V296c0-5.522-4.477-10-10-10H266    v-30h15c5.523,0,10-4.477,10-10v-16.304c10.349-3.875,20.057-9.488,28.62-16.549l14.141,8.163    c4.782,2.761,10.899,1.123,13.66-3.66l25-43.301c1.326-2.297,1.686-5.026,0.999-7.588c-0.687-2.563-2.362-4.746-4.659-6.072    l-14.128-8.156c1.765-10.594,1.881-21.776,0-33.066l14.128-8.156c2.297-1.326,3.973-3.51,4.659-6.072    c0.687-2.561,0.327-5.291-0.999-7.588l-25-43.301c-2.761-4.783-8.877-6.423-13.66-3.66l-14.141,8.163    C311.063,51.8,301.355,46.188,291,42.307V26c0-5.522-4.477-10-10-10h-50c-5.523,0-10,4.478-10,10v16.307    c-10.355,3.882-20.063,9.493-28.619,16.546l-14.141-8.163c-4.782-2.761-10.899-1.123-13.66,3.66l-25,43.301    c-1.326,2.297-1.686,5.026-0.999,7.588c0.686,2.563,2.362,4.746,4.659,6.072l14.128,8.156c-1.765,10.594-1.881,21.776,0,33.066    l-14.128,8.156c-2.297,1.326-3.973,3.51-4.659,6.072c-0.687,2.561-0.327,5.291,0.999,7.588l25,43.301    c2.76,4.782,8.876,6.421,13.66,3.66l14.141-8.163c8.563,7.06,18.27,12.674,28.62,16.549V246c0,5.523,4.477,10,10,10h15v30H106    c-5.523,0-10,4.478-10,10v30.608C53.829,331.576,21,367.516,21,411c0,20.215,7.219,39.783,20.32,55.125    c0.007,0.009,0.15,0.183,0.158,0.192C57.646,485.181,81.164,496,106,496s48.354-10.819,64.516-29.675    c0.008-0.009,0.153-0.187,0.169-0.205C183.785,450.771,191,431.209,191,411c0-43.484-32.829-79.424-75-84.392V306h280v20.608    c-42.171,4.968-75,40.908-75,84.392c0,20.215,7.219,39.783,20.32,55.125c0.007,0.009,0.15,0.183,0.158,0.192    C357.646,485.181,381.164,496,406,496s48.354-10.819,64.516-29.675c0.031-0.036,0.059-0.073,0.089-0.109    C470.632,466.184,470.658,466.152,470.685,466.12z M206,136c0-27.57,22.43-50,50-50s50,22.43,50,50s-22.43,50-50,50    S206,163.57,206,136z M63.643,460.275c24.904-19.031,59.766-19.065,84.715,0C136.65,470.353,121.673,476,106,476    C90.33,476,75.354,470.354,63.643,460.275z M171,411c0,12.09-3.388,23.87-9.656,34.05c-7.457-5.846-15.695-10.44-24.475-13.639    C142.571,424.496,146,415.641,146,406c0-22.056-17.944-40-40-40s-40,17.944-40,40c0,9.641,3.429,18.496,9.131,25.411    c-8.781,3.199-17.019,7.793-24.476,13.639C44.389,434.874,41,423.092,41,411c0-35.841,29.159-65,65-65S171,375.159,171,411z     M406,346c35.841,0,65,29.159,65,65c0,12.09-3.388,23.87-9.656,34.05c-7.457-5.846-15.694-10.44-24.475-13.639    C442.571,424.496,446,415.641,446,406c0-22.056-17.944-40-40-40s-40,17.944-40,40c0,9.641,3.429,18.496,9.131,25.411    c-8.781,3.199-17.019,7.793-24.476,13.639C344.389,434.874,341,423.092,341,411C341,375.159,370.159,346,406,346z     M363.643,460.275c24.904-19.031,59.766-19.065,84.715,0C436.65,470.353,421.672,476,406,476    C390.33,476,375.354,470.354,363.643,460.275z"/></g></g><text x="0" y="527" fill="#000000" font-size="5px" font-weight="bold" font-family="'Helvetica Neue', Helvetica, Arial-Unicode, Arial, Sans-serif">Created by Icon Market</text><text x="0" y="532" fill="#000000" font-size="5px" font-weight="bold" font-family="'Helvetica Neue', Helvetica, Arial-Unicode, Arial, Sans-serif">from the Noun Project</text></svg>