<svg xmlns="http://www.w3.org/2000/svg" width="19" height="18.005" viewBox="0 0 19 18.005">
  <path id="Icon_ionic-ios-search" data-name="Icon ionic-ios-search" d="M23.277,21.194l-5.284-5.053a6.928,6.928,0,0,0,1.658-4.477,7.38,7.38,0,0,0-7.575-7.172A7.384,7.384,0,0,0,4.5,11.67a7.38,7.38,0,0,0,7.575,7.172,7.811,7.811,0,0,0,4.775-1.6l5.25,5.02a.846.846,0,0,0,1.148.028A.747.747,0,0,0,23.277,21.194Zm-11.2-3.9a6.08,6.08,0,0,1-4.206-1.65,5.418,5.418,0,0,1,0-7.959,6.185,6.185,0,0,1,8.411,0,5.418,5.418,0,0,1,0,7.959A6.08,6.08,0,0,1,12.075,17.3Z" transform="translate(-4.5 -4.493)" fill="#359934"/>
</svg>
