<svg id="Group_164" data-name="Group 164" xmlns="http://www.w3.org/2000/svg" width="49" height="49" viewBox="0 0 49 49">
  <g id="Ellipse_6" data-name="Ellipse 6" fill="#fff" stroke="#707070" stroke-width="1">
    <circle cx="24.5" cy="24.5" r="24.5" stroke="none"/>
    <circle cx="24.5" cy="24.5" r="24" fill="none"/>
  </g>
  <path id="Path_18" data-name="Path 18" d="M3,15.743H5.914V12.828H3Zm0,5.828H5.914V18.657H3ZM3,9.914H5.914V7H3Zm5.828,5.828h20.4V12.828H8.828Zm0,5.828h20.4V18.657H8.828ZM8.828,7V9.914h20.4V7ZM3,15.743H5.914V12.828H3Zm0,5.828H5.914V18.657H3ZM3,9.914H5.914V7H3Zm5.828,5.828h20.4V12.828H8.828Zm0,5.828h20.4V18.657H8.828ZM8.828,7V9.914h20.4V7Z" transform="translate(8.598 10.426)"/>
</svg>
