<svg xmlns="http://www.w3.org/2000/svg" width="21" height="20.876" viewBox="0 0 21 20.876">
  <path id="Path_96" data-name="Path 96" d="M18.443,9.9l-7.424,7.417L6.568,12.866l1.48-1.479,2.971,2.969,5.943-5.938ZM4.1,12.488A8.333,8.333,0,0,1,6.851,6.32l2.5,2.5V2.522H3.05L5.36,4.83a10.463,10.463,0,0,0,6.09,18.1V20.807A8.4,8.4,0,0,1,4.1,12.488Zm18.9,0A10.493,10.493,0,0,0,13.55,2.05V4.169a8.352,8.352,0,0,1,4.6,14.488l-2.5-2.5v6.294h6.3l-2.31-2.308A10.416,10.416,0,0,0,23,12.488Z" transform="translate(-2 -2.05)" fill="#359934"/>
</svg>
