<svg xmlns="http://www.w3.org/2000/svg" width="20.496" height="13.664" viewBox="0 0 20.496 13.664">
  <path id="Icon_awesome-eye" data-name="Icon awesome-eye" d="M20.373,10.813A11.413,11.413,0,0,0,10.248,4.5,11.415,11.415,0,0,0,.124,10.813a1.151,1.151,0,0,0,0,1.039,11.413,11.413,0,0,0,10.124,6.313,11.415,11.415,0,0,0,10.124-6.313A1.151,1.151,0,0,0,20.373,10.813ZM10.248,16.456a5.124,5.124,0,1,1,5.124-5.124A5.124,5.124,0,0,1,10.248,16.456Zm0-8.54a3.391,3.391,0,0,0-.9.135,1.7,1.7,0,0,1-2.381,2.381,3.408,3.408,0,1,0,3.281-2.515Z" transform="translate(0 -4.5)" fill="#389b37"/>
</svg>
