<svg xmlns="http://www.w3.org/2000/svg" width="21" height="14" viewBox="0 0 21 14">
  <path id="Path_98" data-name="Path 98" d="M15.318,11a2.922,2.922,0,0,0,2.854-3,2.862,2.862,0,1,0-5.718,0A2.93,2.93,0,0,0,15.318,11ZM7.682,11a2.922,2.922,0,0,0,2.854-3A2.922,2.922,0,0,0,7.682,5,2.93,2.93,0,0,0,4.818,8,2.93,2.93,0,0,0,7.682,11Zm0,2C5.458,13,1,14.17,1,16.5V19H14.364V16.5C14.364,14.17,9.906,13,7.682,13Zm7.636,0c-.277,0-.592.02-.926.05a4.265,4.265,0,0,1,1.88,3.45V19H22V16.5C22,14.17,17.542,13,15.318,13Z" transform="translate(-1 -5)" fill="#359934"/>
</svg>
