<svg xmlns="http://www.w3.org/2000/svg" width="78" height="78" viewBox="0 0 78 78">
  <path id="Icon_awesome-check-circle" data-name="Icon awesome-check-circle" d="M78.562,39.563a39,39,0,1,1-39-39A39,39,0,0,1,78.562,39.563ZM35.051,60.213,63.987,31.277a2.516,2.516,0,0,0,0-3.558l-3.558-3.558a2.516,2.516,0,0,0-3.558,0l-23.6,23.6L22.255,36.741a2.516,2.516,0,0,0-3.558,0L15.138,40.3a2.516,2.516,0,0,0,0,3.558L31.493,60.213a2.516,2.516,0,0,0,3.558,0Z" transform="translate(-0.563 -0.563)" fill="#393"/>
</svg>
